<svg width="246" height="32" viewBox="0 0 246 32" fill="none" xmlns="http://www.w3.org/2000/svg">
<rect width="246" height="32" rx="6" fill="url(#paint0_linear_1_269)" fill-opacity="0.4"/>
<path d="M18.2142 15.655L18.6558 15.2133C18.5386 15.0963 18.3798 15.0306 18.2142 15.0306C18.0485 15.0306 17.8897 15.0963 17.7725 15.2133L18.2142 15.655ZM15.8575 13.2975L16.2992 13.7392C16.4162 13.622 16.482 13.4631 16.482 13.2975C16.482 13.1319 16.4162 12.973 16.2992 12.8558L15.8575 13.2975ZM8.93334 9.91C8.82294 10.0285 8.76283 10.1852 8.76569 10.3471C8.76855 10.509 8.83414 10.6635 8.94865 10.778C9.06316 10.8925 9.21765 10.9581 9.37957 10.961C9.54149 10.9638 9.69819 10.9037 9.81667 10.7933L8.93334 9.91ZM17.7725 15.2133L16.0042 16.9808L16.8875 17.8642L18.6558 16.0967L17.7725 15.2133ZM16.0042 16.9808L9.87584 23.1083L10.76 23.9917L16.8883 17.8633L16.0042 16.9808ZM9.87584 23.1083C9.743 23.2412 9.56285 23.3158 9.375 23.3158C9.18716 23.3158 9.00701 23.2412 8.87417 23.1083L7.99084 23.9925C8.35808 24.3597 8.85612 24.5651 9.37542 24.5651C9.89472 24.5651 10.3928 24.3588 10.76 23.9917L9.87584 23.1083ZM8.87417 23.1083L8.40334 22.6367L7.51917 23.52L7.99084 23.9925L8.87417 23.1083ZM8.40334 22.6367C8.27052 22.5038 8.1959 22.3237 8.1959 22.1358C8.1959 21.948 8.27052 21.7678 8.40334 21.635L7.51917 20.7517C7.15201 21.1189 6.94576 21.617 6.94576 22.1363C6.94576 22.6556 7.15201 23.1528 7.51917 23.52L8.40334 22.6367ZM8.40334 21.635L14.5317 15.5067L13.6475 14.6233L7.51917 20.7517L8.40334 21.635ZM14.5317 15.5067L16.2983 13.7392L15.415 12.855L13.6475 14.6233L14.5317 15.5067ZM23.3108 15.7425C23.4437 15.8753 23.5183 16.0555 23.5183 16.2433C23.5183 16.4312 23.4437 16.6113 23.3108 16.7442L24.195 17.6275C24.5622 17.2603 24.7684 16.7622 24.7684 16.2429C24.7684 15.7236 24.5622 15.2256 24.195 14.8583L23.3108 15.7425ZM23.3108 16.7442L22.2508 17.805L23.1342 18.6883L24.195 17.6283L23.3108 16.7442ZM22.2508 17.805C22.185 17.8709 22.1069 17.9232 22.0209 17.9588C21.9349 17.9945 21.8427 18.0128 21.7496 18.0128C21.6565 18.0128 21.5643 17.9945 21.4783 17.9588C21.3923 17.9232 21.3141 17.8709 21.2483 17.805L20.365 18.6883C20.7322 19.0555 21.2303 19.2617 21.7496 19.2617C22.2689 19.2617 22.7669 19.0555 23.1342 18.6883L22.2508 17.805ZM18.3617 10.7925L22.4867 14.9175L23.37 14.0342L19.245 9.91L18.3617 10.7925ZM22.4867 14.9175L23.3108 15.7425L24.195 14.8583L23.37 14.0342L22.4867 14.9175ZM21.2483 17.805L20.4242 16.98L19.54 17.8633L20.365 18.6883L21.2483 17.805ZM20.4242 16.98L18.6558 15.2117L17.7725 16.0958L19.54 17.8633L20.4242 16.98ZM20.4242 17.8633L23.37 14.9175L22.4867 14.0342L19.54 16.98L20.4242 17.8633ZM16.2992 12.855L12.1742 8.73L11.2908 9.61333L15.4158 13.7383L16.2992 12.855ZM16.8883 16.98L14.5317 14.6225L13.6475 15.5067L16.0042 17.8633L16.8883 16.98ZM9.81667 10.7933C10.9497 9.66031 12.4864 9.02379 14.0888 9.02379C15.6911 9.02379 17.2278 9.66031 18.3608 10.7933L19.2442 9.91C17.8767 8.54264 16.0221 7.77448 14.0883 7.77448C12.1545 7.77448 10.3008 8.54264 8.93334 9.91L9.81667 10.7933Z" fill="white"/>
<path d="M33.312 22V10.896H34.816V22H33.312ZM34.336 22V20.624H40.704V22H34.336ZM34.336 16.976V15.664H40.176V16.976H34.336ZM34.336 12.272V10.896H40.624V12.272H34.336ZM45.5689 22.16C44.8649 22.16 44.2355 21.9893 43.6809 21.648C43.1262 21.296 42.6835 20.8213 42.3529 20.224C42.0329 19.6267 41.8729 18.9547 41.8729 18.208C41.8729 17.4613 42.0329 16.7893 42.3529 16.192C42.6835 15.5947 43.1262 15.12 43.6809 14.768C44.2355 14.416 44.8649 14.24 45.5689 14.24C46.1342 14.24 46.6462 14.3627 47.1049 14.608C47.5635 14.8427 47.9315 15.1733 48.2089 15.6C48.4969 16.016 48.6569 16.5013 48.6889 17.056V19.344C48.6569 19.888 48.5022 20.3733 48.2249 20.8C47.9475 21.2267 47.5795 21.5627 47.1209 21.808C46.6622 22.0427 46.1449 22.16 45.5689 22.16ZM45.8089 20.8C46.2889 20.8 46.7049 20.688 47.0569 20.464C47.4195 20.24 47.7022 19.936 47.9049 19.552C48.1075 19.1573 48.2089 18.7093 48.2089 18.208C48.2089 17.6853 48.1022 17.232 47.8889 16.848C47.6862 16.464 47.4035 16.16 47.0409 15.936C46.6889 15.712 46.2729 15.6 45.7929 15.6C45.3129 15.6 44.8915 15.712 44.5289 15.936C44.1662 16.16 43.8782 16.4693 43.6649 16.864C43.4622 17.248 43.3609 17.6907 43.3609 18.192C43.3609 18.704 43.4622 19.1573 43.6649 19.552C43.8782 19.936 44.1662 20.24 44.5289 20.464C44.9022 20.688 45.3289 20.8 45.8089 20.8ZM49.5689 22H48.1129V19.952L48.3849 18.096L48.1129 16.256V10.576H49.5689V22ZM54.8174 25.344C54.0387 25.344 53.3454 25.2 52.7374 24.912C52.14 24.624 51.66 24.2187 51.2974 23.696L52.2254 22.752C52.5347 23.1467 52.9027 23.4453 53.3294 23.648C53.756 23.8613 54.2627 23.968 54.8494 23.968C55.628 23.968 56.2414 23.76 56.6894 23.344C57.148 22.9387 57.3774 22.3893 57.3774 21.696V19.808L57.6334 18.096L57.3774 16.4V14.4H58.8174V21.696C58.8174 22.4213 58.6467 23.056 58.3054 23.6C57.9747 24.144 57.5054 24.5707 56.8974 24.88C56.3 25.1893 55.6067 25.344 54.8174 25.344ZM54.8174 21.872C54.124 21.872 53.5 21.7067 52.9454 21.376C52.4014 21.0453 51.9694 20.592 51.6494 20.016C51.3294 19.4293 51.1694 18.7733 51.1694 18.048C51.1694 17.3227 51.3294 16.6773 51.6494 16.112C51.9694 15.536 52.4014 15.0827 52.9454 14.752C53.5 14.4107 54.124 14.24 54.8174 14.24C55.4147 14.24 55.9427 14.3573 56.4014 14.592C56.86 14.8267 57.2227 15.1573 57.4894 15.584C57.7667 16 57.916 16.4907 57.9374 17.056V19.072C57.9054 19.6267 57.7507 20.1173 57.4734 20.544C57.2067 20.96 56.844 21.2853 56.3854 21.52C55.9267 21.7547 55.404 21.872 54.8174 21.872ZM55.1054 20.512C55.5747 20.512 55.9854 20.4107 56.3374 20.208C56.7 20.0053 56.9774 19.7227 57.1694 19.36C57.3614 18.9867 57.4574 18.5547 57.4574 18.064C57.4574 17.5733 57.356 17.1467 57.1534 16.784C56.9614 16.4107 56.6894 16.1227 56.3374 15.92C55.9854 15.7067 55.5694 15.6 55.0894 15.6C54.6094 15.6 54.188 15.7067 53.8254 15.92C53.4627 16.1227 53.1747 16.4107 52.9614 16.784C52.7587 17.1467 52.6574 17.568 52.6574 18.048C52.6574 18.528 52.7587 18.9547 52.9614 19.328C53.1747 19.7013 53.4627 19.9947 53.8254 20.208C54.1987 20.4107 54.6254 20.512 55.1054 20.512ZM64.451 22.16C63.6937 22.16 63.011 21.9893 62.403 21.648C61.795 21.296 61.315 20.8213 60.963 20.224C60.611 19.6267 60.435 18.9493 60.435 18.192C60.435 17.4453 60.6057 16.7733 60.947 16.176C61.299 15.5787 61.7683 15.1093 62.355 14.768C62.9523 14.416 63.619 14.24 64.355 14.24C65.059 14.24 65.6777 14.4 66.211 14.72C66.755 15.04 67.1763 15.4827 67.475 16.048C67.7843 16.6133 67.939 17.2533 67.939 17.968C67.939 18.0747 67.9337 18.192 67.923 18.32C67.9123 18.4373 67.891 18.576 67.859 18.736H61.443V17.536H67.091L66.563 18C66.563 17.488 66.4723 17.056 66.291 16.704C66.1097 16.3413 65.8537 16.064 65.523 15.872C65.1923 15.6693 64.7923 15.568 64.323 15.568C63.8323 15.568 63.4003 15.6747 63.027 15.888C62.6537 16.1013 62.3657 16.4 62.163 16.784C61.9603 17.168 61.859 17.6213 61.859 18.144C61.859 18.6773 61.9657 19.1467 62.179 19.552C62.3923 19.9467 62.6963 20.256 63.091 20.48C63.4857 20.6933 63.939 20.8 64.451 20.8C64.8777 20.8 65.267 20.7253 65.619 20.576C65.9817 20.4267 66.291 20.2027 66.547 19.904L67.475 20.848C67.1123 21.2747 66.6643 21.6 66.131 21.824C65.6083 22.048 65.0483 22.16 64.451 22.16ZM70.7731 22V20.688H74.1331C74.7731 20.688 75.2745 20.5013 75.6371 20.128C75.9998 19.744 76.1811 19.2853 76.1811 18.752C76.1811 18.3893 76.1011 18.064 75.9411 17.776C75.7811 17.4773 75.5465 17.2427 75.2371 17.072C74.9385 16.9013 74.5865 16.816 74.1811 16.816H70.7731V15.504H73.9571C74.4905 15.504 74.9118 15.3653 75.2211 15.088C75.5411 14.8 75.7011 14.3893 75.7011 13.856C75.7011 13.3227 75.5358 12.9173 75.2051 12.64C74.8745 12.352 74.4371 12.208 73.8931 12.208H70.7731V10.896H73.9251C74.6505 10.896 75.2531 11.0293 75.7331 11.296C76.2238 11.552 76.5918 11.8933 76.8371 12.32C77.0931 12.7467 77.2211 13.216 77.2211 13.728C77.2211 14.3253 77.0558 14.848 76.7251 15.296C76.4051 15.744 75.9305 16.096 75.3011 16.352L75.4291 15.872C76.1438 16.128 76.6985 16.5173 77.0931 17.04C77.4985 17.552 77.7011 18.16 77.7011 18.864C77.7011 19.4507 77.5571 19.9787 77.2691 20.448C76.9811 20.9173 76.5651 21.296 76.0211 21.584C75.4878 21.8613 74.8318 22 74.0531 22H70.7731ZM69.7651 22V10.896H71.2691V22H69.7651ZM82.9979 22.16C82.2405 22.16 81.5579 21.9893 80.9499 21.648C80.3419 21.296 79.8619 20.8213 79.5099 20.224C79.1579 19.6267 78.9819 18.9493 78.9819 18.192C78.9819 17.4453 79.1525 16.7733 79.4939 16.176C79.8459 15.5787 80.3152 15.1093 80.9019 14.768C81.4992 14.416 82.1659 14.24 82.9019 14.24C83.6059 14.24 84.2245 14.4 84.7579 14.72C85.3019 15.04 85.7232 15.4827 86.0219 16.048C86.3312 16.6133 86.4859 17.2533 86.4859 17.968C86.4859 18.0747 86.4805 18.192 86.4699 18.32C86.4592 18.4373 86.4379 18.576 86.4059 18.736H79.9899V17.536H85.6379L85.1099 18C85.1099 17.488 85.0192 17.056 84.8379 16.704C84.6565 16.3413 84.4005 16.064 84.0699 15.872C83.7392 15.6693 83.3392 15.568 82.8699 15.568C82.3792 15.568 81.9472 15.6747 81.5739 15.888C81.2005 16.1013 80.9125 16.4 80.7099 16.784C80.5072 17.168 80.4059 17.6213 80.4059 18.144C80.4059 18.6773 80.5125 19.1467 80.7259 19.552C80.9392 19.9467 81.2432 20.256 81.6379 20.48C82.0325 20.6933 82.4859 20.8 82.9979 20.8C83.4245 20.8 83.8139 20.7253 84.1659 20.576C84.5285 20.4267 84.8379 20.2027 85.0939 19.904L86.0219 20.848C85.6592 21.2747 85.2112 21.6 84.6779 21.824C84.1552 22.048 83.5952 22.16 82.9979 22.16ZM88.9896 22V11.216H90.4296V22H88.9896ZM87.1176 15.712V14.4H92.3016V15.712H87.1176ZM96.0273 22L100.571 10.896H101.659L106.187 22H104.555L100.827 12.608H101.387L97.6273 22H96.0273ZM98.1873 19.488V18.176H104.027V19.488H98.1873ZM107.728 22V10.576H109.168V22H107.728ZM114.619 22V14.4H116.059V22H114.619ZM115.339 12.88C115.072 12.88 114.854 12.7947 114.683 12.624C114.512 12.4427 114.427 12.2187 114.427 11.952C114.427 11.696 114.512 11.4827 114.683 11.312C114.854 11.1307 115.072 11.04 115.339 11.04C115.606 11.04 115.824 11.1307 115.995 11.312C116.166 11.4827 116.251 11.696 116.251 11.952C116.251 12.2187 116.166 12.4427 115.995 12.624C115.824 12.7947 115.606 12.88 115.339 12.88ZM120.597 22.16C120.17 22.16 119.765 22.1067 119.381 22C119.008 21.8827 118.661 21.7227 118.341 21.52C118.021 21.3067 117.744 21.056 117.509 20.768L118.437 19.84C118.714 20.1813 119.034 20.4373 119.397 20.608C119.76 20.768 120.165 20.848 120.613 20.848C121.061 20.848 121.408 20.7733 121.653 20.624C121.898 20.464 122.021 20.2453 122.021 19.968C122.021 19.6907 121.92 19.4773 121.717 19.328C121.525 19.168 121.274 19.04 120.965 18.944C120.656 18.8373 120.325 18.736 119.973 18.64C119.632 18.5333 119.306 18.4 118.997 18.24C118.688 18.08 118.432 17.8613 118.229 17.584C118.037 17.3067 117.941 16.9387 117.941 16.48C117.941 16.0213 118.053 15.6267 118.277 15.296C118.501 14.9547 118.81 14.6933 119.205 14.512C119.61 14.3307 120.096 14.24 120.661 14.24C121.258 14.24 121.786 14.3467 122.245 14.56C122.714 14.7627 123.098 15.072 123.397 15.488L122.469 16.416C122.256 16.1387 121.989 15.9253 121.669 15.776C121.36 15.6267 121.008 15.552 120.613 15.552C120.197 15.552 119.877 15.6267 119.653 15.776C119.44 15.9147 119.333 16.112 119.333 16.368C119.333 16.624 119.429 16.8213 119.621 16.96C119.813 17.0987 120.064 17.216 120.373 17.312C120.693 17.408 121.024 17.5093 121.365 17.616C121.706 17.712 122.032 17.8453 122.341 18.016C122.65 18.1867 122.901 18.416 123.093 18.704C123.296 18.992 123.397 19.3707 123.397 19.84C123.397 20.5547 123.141 21.12 122.629 21.536C122.128 21.952 121.45 22.16 120.597 22.16ZM132.337 22.16C131.761 22.16 131.239 22.0427 130.769 21.808C130.311 21.5627 129.943 21.2267 129.665 20.8C129.388 20.3733 129.233 19.888 129.201 19.344V17.056C129.233 16.5013 129.388 16.016 129.665 15.6C129.953 15.1733 130.327 14.8427 130.785 14.608C131.255 14.3627 131.772 14.24 132.337 14.24C133.031 14.24 133.655 14.416 134.209 14.768C134.775 15.12 135.217 15.5947 135.537 16.192C135.857 16.7893 136.017 17.4613 136.017 18.208C136.017 18.9547 135.857 19.6267 135.537 20.224C135.217 20.8213 134.775 21.296 134.209 21.648C133.655 21.9893 133.031 22.16 132.337 22.16ZM128.337 22V10.576H129.777V16.256L129.505 18.096L129.777 19.952V22H128.337ZM132.097 20.8C132.577 20.8 132.999 20.688 133.361 20.464C133.724 20.24 134.012 19.936 134.225 19.552C134.439 19.1573 134.545 18.704 134.545 18.192C134.545 17.6907 134.439 17.2427 134.225 16.848C134.012 16.4533 133.724 16.1493 133.361 15.936C132.999 15.712 132.583 15.6 132.113 15.6C131.633 15.6 131.212 15.712 130.849 15.936C130.487 16.1493 130.204 16.4533 130.001 16.848C129.799 17.2427 129.697 17.696 129.697 18.208C129.697 18.7093 129.793 19.1573 129.985 19.552C130.188 19.936 130.471 20.24 130.833 20.464C131.207 20.688 131.628 20.8 132.097 20.8ZM141.17 22.16C140.412 22.16 139.73 21.9893 139.122 21.648C138.514 21.296 138.034 20.8213 137.682 20.224C137.33 19.6267 137.154 18.9493 137.154 18.192C137.154 17.4453 137.324 16.7733 137.666 16.176C138.018 15.5787 138.487 15.1093 139.074 14.768C139.671 14.416 140.338 14.24 141.074 14.24C141.778 14.24 142.396 14.4 142.93 14.72C143.474 15.04 143.895 15.4827 144.194 16.048C144.503 16.6133 144.658 17.2533 144.658 17.968C144.658 18.0747 144.652 18.192 144.642 18.32C144.631 18.4373 144.61 18.576 144.578 18.736H138.162V17.536H143.81L143.282 18C143.282 17.488 143.191 17.056 143.01 16.704C142.828 16.3413 142.572 16.064 142.242 15.872C141.911 15.6693 141.511 15.568 141.042 15.568C140.551 15.568 140.119 15.6747 139.746 15.888C139.372 16.1013 139.084 16.4 138.882 16.784C138.679 17.168 138.578 17.6213 138.578 18.144C138.578 18.6773 138.684 19.1467 138.898 19.552C139.111 19.9467 139.415 20.256 139.81 20.48C140.204 20.6933 140.658 20.8 141.17 20.8C141.596 20.8 141.986 20.7253 142.338 20.576C142.7 20.4267 143.01 20.2027 143.266 19.904L144.194 20.848C143.831 21.2747 143.383 21.6 142.85 21.824C142.327 22.048 141.767 22.16 141.17 22.16ZM146.244 22V14.4H147.684V22H146.244ZM146.964 12.88C146.697 12.88 146.479 12.7947 146.308 12.624C146.137 12.4427 146.052 12.2187 146.052 11.952C146.052 11.696 146.137 11.4827 146.308 11.312C146.479 11.1307 146.697 11.04 146.964 11.04C147.231 11.04 147.449 11.1307 147.62 11.312C147.791 11.4827 147.876 11.696 147.876 11.952C147.876 12.2187 147.791 12.4427 147.62 12.624C147.449 12.7947 147.231 12.88 146.964 12.88ZM155.182 22V17.568C155.182 16.992 155.001 16.5173 154.638 16.144C154.275 15.7707 153.806 15.584 153.23 15.584C152.846 15.584 152.505 15.6693 152.206 15.84C151.907 16.0107 151.673 16.2453 151.502 16.544C151.331 16.8427 151.246 17.184 151.246 17.568L150.654 17.232C150.654 16.656 150.782 16.144 151.038 15.696C151.294 15.248 151.651 14.896 152.11 14.64C152.569 14.3733 153.086 14.24 153.662 14.24C154.238 14.24 154.745 14.384 155.182 14.672C155.63 14.96 155.982 15.3387 156.238 15.808C156.494 16.2667 156.622 16.7573 156.622 17.28V22H155.182ZM149.806 22V14.4H151.246V22H149.806ZM161.724 25.344C160.945 25.344 160.252 25.2 159.644 24.912C159.046 24.624 158.566 24.2187 158.204 23.696L159.132 22.752C159.441 23.1467 159.809 23.4453 160.236 23.648C160.662 23.8613 161.169 23.968 161.756 23.968C162.534 23.968 163.148 23.76 163.596 23.344C164.054 22.9387 164.284 22.3893 164.284 21.696V19.808L164.54 18.096L164.284 16.4V14.4H165.724V21.696C165.724 22.4213 165.553 23.056 165.212 23.6C164.881 24.144 164.412 24.5707 163.804 24.88C163.206 25.1893 162.513 25.344 161.724 25.344ZM161.724 21.872C161.03 21.872 160.406 21.7067 159.852 21.376C159.308 21.0453 158.876 20.592 158.556 20.016C158.236 19.4293 158.076 18.7733 158.076 18.048C158.076 17.3227 158.236 16.6773 158.556 16.112C158.876 15.536 159.308 15.0827 159.852 14.752C160.406 14.4107 161.03 14.24 161.724 14.24C162.321 14.24 162.849 14.3573 163.308 14.592C163.766 14.8267 164.129 15.1573 164.396 15.584C164.673 16 164.822 16.4907 164.844 17.056V19.072C164.812 19.6267 164.657 20.1173 164.38 20.544C164.113 20.96 163.75 21.2853 163.292 21.52C162.833 21.7547 162.31 21.872 161.724 21.872ZM162.012 20.512C162.481 20.512 162.892 20.4107 163.244 20.208C163.606 20.0053 163.884 19.7227 164.076 19.36C164.268 18.9867 164.364 18.5547 164.364 18.064C164.364 17.5733 164.262 17.1467 164.06 16.784C163.868 16.4107 163.596 16.1227 163.244 15.92C162.892 15.7067 162.476 15.6 161.996 15.6C161.516 15.6 161.094 15.7067 160.732 15.92C160.369 16.1227 160.081 16.4107 159.868 16.784C159.665 17.1467 159.564 17.568 159.564 18.048C159.564 18.528 159.665 18.9547 159.868 19.328C160.081 19.7013 160.369 19.9947 160.732 20.208C161.105 20.4107 161.532 20.512 162.012 20.512ZM174.221 22.16C173.603 22.16 173.043 22.0213 172.541 21.744C172.051 21.456 171.667 21.0613 171.389 20.56C171.112 20.0587 170.973 19.4773 170.973 18.816V14.4H172.413V18.752C172.413 19.168 172.483 19.5307 172.621 19.84C172.771 20.1387 172.984 20.368 173.261 20.528C173.539 20.688 173.864 20.768 174.237 20.768C174.803 20.768 175.245 20.592 175.565 20.24C175.885 19.8773 176.045 19.3813 176.045 18.752V14.4H177.485V18.816C177.485 19.4773 177.347 20.0587 177.069 20.56C176.792 21.0613 176.408 21.456 175.917 21.744C175.437 22.0213 174.872 22.16 174.221 22.16ZM183.415 22.16C182.839 22.16 182.317 22.0427 181.847 21.808C181.389 21.5627 181.021 21.2267 180.743 20.8C180.466 20.3733 180.311 19.888 180.279 19.344V17.056C180.311 16.5013 180.466 16.016 180.743 15.6C181.031 15.1733 181.405 14.8427 181.863 14.608C182.333 14.3627 182.85 14.24 183.415 14.24C184.109 14.24 184.733 14.416 185.287 14.768C185.853 15.12 186.295 15.5947 186.615 16.192C186.935 16.7893 187.095 17.4613 187.095 18.208C187.095 18.9547 186.935 19.6267 186.615 20.224C186.295 20.8213 185.853 21.296 185.287 21.648C184.733 21.9893 184.109 22.16 183.415 22.16ZM179.415 25.184V14.4H180.855V16.4L180.583 18.24L180.855 20.096V25.184H179.415ZM183.175 20.8C183.655 20.8 184.077 20.688 184.439 20.464C184.802 20.24 185.09 19.936 185.303 19.552C185.517 19.1573 185.623 18.704 185.623 18.192C185.623 17.6907 185.517 17.2427 185.303 16.848C185.09 16.4533 184.802 16.1493 184.439 15.936C184.077 15.712 183.661 15.6 183.191 15.6C182.711 15.6 182.29 15.712 181.927 15.936C181.565 16.1493 181.282 16.4533 181.079 16.848C180.877 17.2427 180.775 17.696 180.775 18.208C180.775 18.7093 180.871 19.1573 181.063 19.552C181.266 19.936 181.549 20.24 181.911 20.464C182.285 20.688 182.706 20.8 183.175 20.8ZM191.88 25.344C191.101 25.344 190.408 25.2 189.8 24.912C189.203 24.624 188.723 24.2187 188.36 23.696L189.288 22.752C189.597 23.1467 189.965 23.4453 190.392 23.648C190.819 23.8613 191.325 23.968 191.912 23.968C192.691 23.968 193.304 23.76 193.752 23.344C194.211 22.9387 194.44 22.3893 194.44 21.696V19.808L194.696 18.096L194.44 16.4V14.4H195.88V21.696C195.88 22.4213 195.709 23.056 195.368 23.6C195.037 24.144 194.568 24.5707 193.96 24.88C193.363 25.1893 192.669 25.344 191.88 25.344ZM191.88 21.872C191.187 21.872 190.563 21.7067 190.008 21.376C189.464 21.0453 189.032 20.592 188.712 20.016C188.392 19.4293 188.232 18.7733 188.232 18.048C188.232 17.3227 188.392 16.6773 188.712 16.112C189.032 15.536 189.464 15.0827 190.008 14.752C190.563 14.4107 191.187 14.24 191.88 14.24C192.477 14.24 193.005 14.3573 193.464 14.592C193.923 14.8267 194.285 15.1573 194.552 15.584C194.829 16 194.979 16.4907 195 17.056V19.072C194.968 19.6267 194.813 20.1173 194.536 20.544C194.269 20.96 193.907 21.2853 193.448 21.52C192.989 21.7547 192.467 21.872 191.88 21.872ZM192.168 20.512C192.637 20.512 193.048 20.4107 193.4 20.208C193.763 20.0053 194.04 19.7227 194.232 19.36C194.424 18.9867 194.52 18.5547 194.52 18.064C194.52 17.5733 194.419 17.1467 194.216 16.784C194.024 16.4107 193.752 16.1227 193.4 15.92C193.048 15.7067 192.632 15.6 192.152 15.6C191.672 15.6 191.251 15.7067 190.888 15.92C190.525 16.1227 190.237 16.4107 190.024 16.784C189.821 17.1467 189.72 17.568 189.72 18.048C189.72 18.528 189.821 18.9547 190.024 19.328C190.237 19.7013 190.525 19.9947 190.888 20.208C191.261 20.4107 191.688 20.512 192.168 20.512ZM197.993 22V14.4H199.434V22H197.993ZM199.434 17.664L198.89 17.424C198.89 16.4533 199.114 15.68 199.562 15.104C200.01 14.528 200.655 14.24 201.498 14.24C201.882 14.24 202.228 14.3093 202.538 14.448C202.847 14.576 203.135 14.7947 203.402 15.104L202.458 16.08C202.298 15.9093 202.122 15.7867 201.93 15.712C201.738 15.6373 201.514 15.6 201.258 15.6C200.724 15.6 200.287 15.7707 199.946 16.112C199.604 16.4533 199.434 16.9707 199.434 17.664ZM207.397 22.16C206.704 22.16 206.075 21.9893 205.509 21.648C204.944 21.296 204.496 20.8213 204.165 20.224C203.845 19.6267 203.685 18.9547 203.685 18.208C203.685 17.4613 203.845 16.7893 204.165 16.192C204.496 15.5947 204.939 15.12 205.493 14.768C206.059 14.416 206.693 14.24 207.397 14.24C207.973 14.24 208.485 14.3627 208.933 14.608C209.392 14.8427 209.76 15.1733 210.037 15.6C210.315 16.016 210.469 16.5013 210.501 17.056V19.344C210.469 19.888 210.315 20.3733 210.037 20.8C209.771 21.2267 209.408 21.5627 208.949 21.808C208.501 22.0427 207.984 22.16 207.397 22.16ZM207.637 20.8C208.352 20.8 208.928 20.56 209.365 20.08C209.803 19.5893 210.021 18.9653 210.021 18.208C210.021 17.6853 209.92 17.232 209.717 16.848C209.525 16.4533 209.248 16.1493 208.885 15.936C208.523 15.712 208.101 15.6 207.621 15.6C207.141 15.6 206.715 15.712 206.341 15.936C205.979 16.16 205.691 16.4693 205.477 16.864C205.275 17.248 205.173 17.6907 205.173 18.192C205.173 18.704 205.275 19.1573 205.477 19.552C205.691 19.936 205.984 20.24 206.357 20.464C206.731 20.688 207.157 20.8 207.637 20.8ZM209.925 22V19.952L210.197 18.096L209.925 16.256V14.4H211.381V22H209.925ZM216.694 22.16C215.99 22.16 215.361 21.9893 214.806 21.648C214.251 21.296 213.809 20.8213 213.478 20.224C213.158 19.6267 212.998 18.9547 212.998 18.208C212.998 17.4613 213.158 16.7893 213.478 16.192C213.809 15.5947 214.251 15.12 214.806 14.768C215.361 14.416 215.99 14.24 216.694 14.24C217.259 14.24 217.771 14.3627 218.23 14.608C218.689 14.8427 219.057 15.1733 219.334 15.6C219.622 16.016 219.782 16.5013 219.814 17.056V19.344C219.782 19.888 219.627 20.3733 219.35 20.8C219.073 21.2267 218.705 21.5627 218.246 21.808C217.787 22.0427 217.27 22.16 216.694 22.16ZM216.934 20.8C217.414 20.8 217.83 20.688 218.182 20.464C218.545 20.24 218.827 19.936 219.03 19.552C219.233 19.1573 219.334 18.7093 219.334 18.208C219.334 17.6853 219.227 17.232 219.014 16.848C218.811 16.464 218.529 16.16 218.166 15.936C217.814 15.712 217.398 15.6 216.918 15.6C216.438 15.6 216.017 15.712 215.654 15.936C215.291 16.16 215.003 16.4693 214.79 16.864C214.587 17.248 214.486 17.6907 214.486 18.192C214.486 18.704 214.587 19.1573 214.79 19.552C215.003 19.936 215.291 20.24 215.654 20.464C216.027 20.688 216.454 20.8 216.934 20.8ZM220.694 22H219.238V19.952L219.51 18.096L219.238 16.256V10.576H220.694V22ZM226.31 22.16C225.553 22.16 224.87 21.9893 224.262 21.648C223.654 21.296 223.174 20.8213 222.822 20.224C222.47 19.6267 222.294 18.9493 222.294 18.192C222.294 17.4453 222.465 16.7733 222.806 16.176C223.158 15.5787 223.628 15.1093 224.214 14.768C224.812 14.416 225.478 14.24 226.214 14.24C226.918 14.24 227.537 14.4 228.07 14.72C228.614 15.04 229.036 15.4827 229.334 16.048C229.644 16.6133 229.798 17.2533 229.798 17.968C229.798 18.0747 229.793 18.192 229.782 18.32C229.772 18.4373 229.75 18.576 229.718 18.736H223.302V17.536H228.95L228.422 18C228.422 17.488 228.332 17.056 228.15 16.704C227.969 16.3413 227.713 16.064 227.382 15.872C227.052 15.6693 226.652 15.568 226.182 15.568C225.692 15.568 225.26 15.6747 224.886 15.888C224.513 16.1013 224.225 16.4 224.022 16.784C223.82 17.168 223.718 17.6213 223.718 18.144C223.718 18.6773 223.825 19.1467 224.038 19.552C224.252 19.9467 224.556 20.256 224.95 20.48C225.345 20.6933 225.798 20.8 226.31 20.8C226.737 20.8 227.126 20.7253 227.478 20.576C227.841 20.4267 228.15 20.2027 228.406 19.904L229.334 20.848C228.972 21.2747 228.524 21.6 227.99 21.824C227.468 22.048 226.908 22.16 226.31 22.16ZM234.585 22.16C233.881 22.16 233.251 21.9893 232.697 21.648C232.142 21.296 231.699 20.8213 231.368 20.224C231.049 19.6267 230.889 18.9547 230.889 18.208C230.889 17.4613 231.049 16.7893 231.368 16.192C231.699 15.5947 232.142 15.12 232.697 14.768C233.251 14.416 233.881 14.24 234.585 14.24C235.15 14.24 235.662 14.3627 236.121 14.608C236.579 14.8427 236.947 15.1733 237.225 15.6C237.513 16.016 237.673 16.5013 237.705 17.056V19.344C237.673 19.888 237.518 20.3733 237.241 20.8C236.963 21.2267 236.595 21.5627 236.137 21.808C235.678 22.0427 235.161 22.16 234.585 22.16ZM234.825 20.8C235.305 20.8 235.721 20.688 236.073 20.464C236.435 20.24 236.718 19.936 236.921 19.552C237.123 19.1573 237.225 18.7093 237.225 18.208C237.225 17.6853 237.118 17.232 236.905 16.848C236.702 16.464 236.419 16.16 236.057 15.936C235.705 15.712 235.289 15.6 234.809 15.6C234.329 15.6 233.907 15.712 233.545 15.936C233.182 16.16 232.894 16.4693 232.681 16.864C232.478 17.248 232.377 17.6907 232.377 18.192C232.377 18.704 232.478 19.1573 232.681 19.552C232.894 19.936 233.182 20.24 233.545 20.464C233.918 20.688 234.345 20.8 234.825 20.8ZM238.585 22H237.129V19.952L237.401 18.096L237.129 16.256V10.576H238.585V22Z" fill="white"/>
<defs>
<linearGradient id="paint0_linear_1_269" x1="115.765" y1="-2.27915e-06" x2="135.771" y2="69.3598" gradientUnits="userSpaceOnUse">
<stop stop-color="#84FDF7"/>
<stop offset="1" stop-color="#337587" stop-opacity="0.8"/>
</linearGradient>
</defs>
</svg>
